<?xml version="1.0" encoding="UTF-8"?>
<svg id="Layer_1" data-name="Layer 1" xmlns="http://www.w3.org/2000/svg" viewBox="0 0 1080 1080">
  <defs>
    <style>
      .cls-1 {
        fill: #f5f2f5;
      }
    </style>
  </defs>
  <g>
    <path class="cls-1" d="M264.79,763.75c-5.97-5.32-14.69-5.7-21.34-1.27-5.17,3.43-10.82,5.14-16.93,5.14-8.6,0-15.48-2.78-20.71-8.27-5.23-5.5-7.83-12.91-7.83-22.19s2.6-16.67,7.83-22.16c5.23-5.53,12.12-8.27,20.71-8.27,6.12,0,11.76,1.71,16.93,5.14,3.04,2.01,6.53,3.04,9.99,3.04,4.08,0,8.13-1.42,11.35-4.31,8.84-7.89,7.21-22.01-3.01-27.92-1.83-1.06-3.72-2.01-5.67-2.9-9.28-4.2-19.86-6.26-31.68-6.26-12.88,0-24.47,2.69-34.78,8.07-10.34,5.41-18.44,12.94-24.29,22.64-5.85,9.69-8.78,20.66-8.78,32.95s2.93,23.29,8.78,32.98c5.85,9.69,13.95,17.23,24.29,22.61,10.31,5.41,21.9,8.1,34.78,8.1,11.82,0,22.4-2.1,31.68-6.26,1.95-.89,3.84-1.83,5.67-2.9,5.73-3.31,8.75-9.22,8.75-15.13,0-4.67-1.86-9.34-5.73-12.8Z"/>
    <path class="cls-1" d="M396.91,770.93l-18.32-31.83c-1.3-2.28-1.27-5.08,.12-7.3l17.11-27.98c1.86-3.01,2.69-6.26,2.69-9.4,0-9.46-7.54-18.14-18.14-18.14-6.47,0-12.47,3.49-15.69,9.13l-18.68,32.65c-1.27,2.25-3.63,3.6-6.21,3.6h-1.21c-3.96,0-7.15-3.19-7.15-7.15v-17.7c0-5.67-2.3-10.82-6-14.54-3.72-3.69-8.86-6-14.54-6-11.35,0-20.54,9.19-20.54,20.54v80.7c0,5.67,2.3,10.82,6,14.51,3.72,3.72,8.86,6.03,14.54,6.03,11.35,0,20.54-9.19,20.54-20.54v-16.31c0-1.98,.8-3.78,2.1-5.08,1.3-1.3,3.07-2.1,5.05-2.1,2.66,0,5.11,1.48,6.35,3.81l16.19,30.58c3.13,5.94,9.28,9.63,15.99,9.63h4.11c13.92,0,22.61-15.04,15.69-27.13Z"/>
    <path class="cls-1" d="M532.45,701.07c-5.05-8.98-12.11-15.84-21.16-20.54s-19.47-7.03-31.32-7.03-22.25,2.33-31.29,7.03c-9.04,4.7-16.1,11.55-21.16,20.54-5.02,8.98-7.56,19.68-7.56,32.09v44.71c0,11.14,9.04,20.18,20.18,20.18h2.84c4.79,0,9.13-1.95,12.26-5.08,3.13-3.13,5.08-7.51,5.08-12.29,0-3.96,3.22-7.15,7.18-7.15h24.29c1.98,0,3.78,.8,5.05,2.1,1.3,1.27,2.1,3.07,2.1,5.05,0,9.6,7.77,17.38,17.37,17.38h3.52c11.14,0,20.18-9.04,20.18-20.18v-44.71c0-12.41-2.54-23.11-7.56-32.09Zm-31.29,36.79l-.12,.03-.12,.03,.03,.24c-.27,.77-.56,1.45-1.09,2.01-.33,.41-.77,.74-1.24,1.03,.03,.06,0,.12-.03,.12l.65-.21c-.8,.62-1.71,1-2.81,1.27-1.45,.33-2.9,.5-4.49,.74-.38,.06-.86,.12-1.36,.06l-1.21,.18c-2.1,.15-4.23,.06-6.32,.12-1,0-2.01,.03-3.1,.06-1,0-2.13-.09-3.13-.09-1.74,0-3.46,.12-5.17,.24-2.6,.09-5.56,.27-7.98-1.03-2.42-1.27-4.28-4.14-4.88-7.54-.56-3.01-.03-6.32,.35-8.98,.15-.77,.27-1.65,.3-2.42,.33-2.16,.68-4.2,1.27-6.26,.27-.77,.53-1.54,.8-2.33,.56-1.18,1.03-2.25,1.65-3.34l.09-.12c1.3-2.3,3.28-4.2,5.35-5.47,.44-.33,.8-.47,1.3-.56,1.98-.89,4.17-1.18,6.32-.98,4.52,.35,9.04,2.48,11.73,4.96,5.11,4.64,8.1,11.05,10.96,17.38,.74,1.77,1.33,3.31,1.77,4.73,.71,2.51,1,4.58,.47,6.15Z"/>
    <path class="cls-1" d="M654.73,746.37c-1.83-2.57-4.02-4.82-6.59-6.77-3.46-2.63-3.72-7.65-.71-10.76,1.42-1.45,2.66-3.01,3.75-4.73,2.78-4.4,4.17-9.34,4.17-14.8,0-7.42-2.69-13.89-8.1-19.38-5.38-5.5-12.59-9.72-21.57-12.62-8.98-2.9-18.76-4.34-29.31-4.34-9.96,0-19.47,1.21-28.49,3.66-8.48,2.3-13,11.55-9.78,19.71l1.03,2.6c2.87,7.24,10.76,10.84,18.2,8.69,1.12-.33,2.25-.62,3.37-.92,5.7-1.39,10.96-2.1,15.84-2.1,5.23,0,9.43,.83,12.62,2.45,3.19,1.63,4.79,3.93,4.79,6.94,0,2.33-.92,4.14-2.72,5.41-1.77,1.27-4.43,1.92-7.89,1.92h-14.63c-4.08,0-7.77,1.65-10.46,4.31-2.66,2.69-4.31,6.38-4.31,10.46,0,8.16,6.62,14.77,14.77,14.77h18.08c8.01,0,12.03,2.45,12.03,7.33,0,3.58-2.07,6.32-6.18,8.16-4.14,1.86-9.49,2.81-16.11,2.81-5.44,0-11.26-.62-17.4-1.83-1.86-.38-3.72-.8-5.53-1.27-7.18-1.86-14.63,1.65-17.52,8.48l-.65,1.54c-3.46,8.21,1.09,17.55,9.69,20.03,11.23,3.25,22.87,4.88,34.9,4.88,11.14,0,21.25-1.48,30.35-4.43,9.1-2.95,16.37-7.24,21.75-12.88,5.41-5.61,8.1-12.26,8.1-19.92,0-6.5-1.83-12.29-5.5-17.4Z"/>
    <path class="cls-1" d="M780.31,770.93l-18.29-31.83c-1.3-2.28-1.27-5.08,.09-7.3l17.14-27.98c1.83-3.01,2.69-6.23,2.69-9.4,0-9.43-7.54-18.14-18.14-18.14-6.5,0-12.5,3.49-15.72,9.13l-18.65,32.65c-1.27,2.25-3.66,3.6-6.24,3.6h-1.18c-3.96,0-7.18-3.19-7.18-7.15v-17.7c0-5.67-2.31-10.82-6-14.54-3.72-3.69-8.83-6-14.51-6-11.35,0-20.54,9.19-20.54,20.54v80.7c0,5.67,2.3,10.82,6,14.51,3.72,3.72,8.86,6.03,14.54,6.03,11.32,0,20.51-9.19,20.51-20.54v-16.31c0-1.98,.8-3.78,2.1-5.08,1.3-1.3,3.1-2.1,5.08-2.1,2.66,0,5.08,1.48,6.32,3.81l16.19,30.58c3.13,5.94,9.31,9.63,16.02,9.63h4.08c13.92,0,22.63-15.04,15.69-27.13Z"/>
    <path class="cls-1" d="M915.86,701.07c-5.05-8.98-12.09-15.84-21.13-20.54s-19.47-7.03-31.32-7.03-22.25,2.33-31.32,7.03c-9.04,4.7-16.08,11.55-21.13,20.54-5.05,8.98-7.56,19.68-7.56,32.09v44.71c0,11.14,9.04,20.18,20.18,20.18h2.81c4.82,0,9.13-1.95,12.29-5.08,3.13-3.13,5.08-7.51,5.08-12.29,0-3.96,3.19-7.15,7.15-7.15h24.29c1.98,0,3.78,.8,5.08,2.1,1.3,1.27,2.1,3.07,2.1,5.05,0,9.6,7.77,17.38,17.35,17.38h3.52c11.17,0,20.18-9.04,20.18-20.18v-44.71c0-12.41-2.51-23.11-7.56-32.09Zm-30.88,36.79l-.12,.03-.12,.03,.03,.24c-.27,.77-.53,1.45-1.09,2.01-.3,.41-.77,.74-1.21,1.03,0,.06-.03,.09-.06,.12l.65-.21c-.77,.62-1.71,1-2.81,1.27-1.45,.33-2.9,.5-4.49,.74-.35,.06-.86,.12-1.36,.06l-1.21,.18c-2.1,.15-4.23,.06-6.32,.12-1,0-1.98,.03-3.1,.06-.98,0-2.13-.09-3.1-.09-1.74,0-3.49,.12-5.2,.24-2.6,.09-5.55,.27-7.98-1.03-2.39-1.27-4.28-4.14-4.88-7.54-.53-3.01,0-6.32,.38-8.98,.15-.77,.27-1.65,.3-2.42,.33-2.16,.65-4.2,1.24-6.26,.27-.77,.53-1.54,.8-2.33,.59-1.18,1.06-2.25,1.65-3.34l.09-.12c1.33-2.3,3.28-4.2,5.35-5.47,.47-.33,.8-.47,1.3-.56,1.98-.89,4.2-1.18,6.32-.98,4.52,.35,9.04,2.48,11.73,4.96,5.11,4.64,8.13,11.05,10.99,17.38,.71,1.77,1.3,3.31,1.74,4.73,.74,2.51,1,4.58,.47,6.15Z"/>
  </g>
  <g>
    <g>
      <path class="cls-1" d="M769.1,340.67h.1v-.29c-.05,.1-.1,.19-.1,.29Z"/>
      <g>
        <path class="cls-1" d="M769.1,340.67h.1v-.29c-.05,.1-.1,.19-.1,.29Z"/>
        <path class="cls-1" d="M785.29,343.98c.05,1.2-.34,2.44-.62,3.45-.1,.29-.19,.62-.24,.91-.24,.81-.48,1.58-.81,2.35-.14,.29-.29,.57-.43,.86-.29,.43-.53,.81-.81,1.2l-.05,.05c-.62,.81-1.49,1.44-2.35,1.82-.19,.1-.34,.14-.53,.14-.81,.24-1.68,.24-2.49,.05-1.72-.38-3.35-1.44-4.26-2.54-1.73-2.06-2.54-4.7-3.31-7.28-.19-.72-.34-1.34-.43-1.92-.14-1.01-.14-1.82,.14-2.4h.1v-.1c.14-.29,.29-.53,.53-.72,.14-.14,.34-.24,.53-.34,0-.05,.05-.05,.05-.05l-.29,.05c.34-.19,.72-.29,1.15-.34,.58-.05,1.15-.05,1.77-.05,.14,0,.33,0,.53,.05h.48c.81,.05,1.63,.19,2.44,.29,.38,.05,.77,.1,1.2,.14,.38,.05,.81,.14,1.2,.19,.67,.1,1.34,.14,2.01,.19,1.01,.1,2.16,.19,3.02,.81,.86,.62,1.44,1.82,1.49,3.16Z"/>
      </g>
    </g>
    <path class="cls-1" d="M766.5,355.85c-2.4-2.83-3.45-6.23-4.26-9.01-.48-1.63-.77-3.07-.72-4.41,0-.86,.1-1.63,.34-2.4,.19-.77,.53-1.49,1.05-2.2,0-.1,.05-.14,.14-.19-1.82-.43-3.69-.81-5.61-1.15-3.93-.72-8.05-1.34-12.6-1.92-1.44-.19-2.92-.29-4.41-.43-2.68-.24-5.22-.48-7.72-1.01-3.35-.67-5.22-3.26-7.04-5.8l-.67-.86c-2.44-3.31-5.08-6.42-7.86-9.2-9.58-9.68-20.94-16.24-32.87-19.07-12.75-2.97-27.03-1.49-39.1,4.02-.1-.72-.24-1.39-.43-2.06-.05-.1-.05-.24-.1-.34-.24-.77-.53-1.49-.86-2.2-1.01-2.3-2.4-4.26-3.59-5.8-3.74-4.7-7.62-8.05-11.84-10.21-5.56-2.78-11.69-3.4-16.96-1.68-7.71,2.54-13.42,10.21-14.23,19.02-.62,7.19,1.87,14.81,7,21.42,.53,.67,1.05,1.34,1.58,1.96-25.54,.43-51.75,1.34-77.43,2.25-29.61,1.01-60.23,2.06-89.65,2.4-10.07,.11-20.22,.1-30.23,1.29-29.66,3.53-59.89,10.72-84.96,27.62-6.03,4.06-11.71,8.64-16.93,13.69-10.16,9.84-18.82,21.21-25.6,33.63-6.2,11.36-13.46,25.64-9.77,38.92,.94,3.39,2.65,6.52,5,9.14,3.55,4.02,8.77,6.37,13.94,6.37,1.44,0,2.78-.14,4.12-.53-.77,15.72-.29,32.78,1.53,51.8,1.58,17.06,4.07,39.58,9.1,62.15,1.49,6.71,3.4,14.47,6.9,21.61,6.37,12.89,18.88,21.66,35.17,24.63,3.12,.57,6.28,.95,9.45,1.17,1.69,.12,3.46,.33,5.15,.26,1.66-.07-.26-4.04-.41-4.76-.75-3.81-1.91-7.47-2.9-11.22-.62-2.33-.45-4.77,1.75-6.2,1.1-.72,2.64-.91,4.03-.48,1.34,.38,2.4,1.29,2.87,2.44,1.23,2.94,2.24,5.96,3.12,9.03,.88,3.08,1.43,6.29,2.09,9.44,.09,.44,.19,.9,.48,1.26,.9,1.11,4.4,.11,5.62,0,2.26-.21,4.51-.42,6.76-.7,1.89-.24,4.21-.31,5.89-1.31,.44-.26,.32-.35,.22-.89-.07-.4-.15-.8-.24-1.19-.66-3.03-1.72-6.03-2.72-8.97s-2.12-5.86-3.38-8.7c-1-2.26-.18-4.81,1.9-6.14,1.1-.72,2.54-.91,3.88-.53,1.54,.44,2.43,1.39,3.11,2.77,.77,1.56,1.51,3.14,2.22,4.73,1.06,2.4,2.05,4.83,2.96,7.29,.45,1.23,.89,2.47,1.3,3.71,.19,.56,.46,2.52,1.44,2.05,.42-.2,.86-.83,1.19-1.16,.49-.48,.96-.98,1.41-1.5,4.85-5.5,6.75-12.41,6.65-19.64-.06-4.3-.68-8.63-1.59-12.82-2.49-12.17-4.12-22.23-.67-32.1,4.02-11.45,12.27-21.13,22.62-26.45,9.94-5.13,21.32-6.5,32.37-6.73,12.49-.27,25,.43,37.48,.84,7.43,.24,14.87,.81,22.28,.98,7.46,.17,15.14-1.13,22.43,1.04,5.89,1.75,9.25,5.81,13.9,9.39,5.36,4.11,10.8,8.12,16.43,11.85,10.04,6.66,20.47,12.73,31.21,18.18,6.44,3.27,12.99,6.31,19.65,9.12,14.38,6.09,34.02,14.38,53.91,14.38,7.81,0,15.14-1.29,21.8-3.93,5.03-1.96,9.63-4.6,13.7-7.71-.4,.31-5.12-2.6-5.84-2.94-2.14-1.02-4.31-1.95-6.48-2.91-1.11-.49-3.49-1.59-3.49-3.12-.48-1.34-.34-2.87,.29-4.12,.62-1.1,1.72-2.01,3.02-2.35,1.49-.38,2.73,0,3.5,.38,5.43,2.4,11.63,4.37,16.1,8.43,3.74-4.17,6.76-8.82,8.82-13.9-.06,.11-4.7-2.34-5.08-2.54-3.04-1.58-6.14-2.9-9.48-3.71-2.82-.68-4.58-2.92-3.94-5.92,1.58-7.37,11.96-2.33,15.95-.34,.39,.19,5.48,2.67,5.47,2.74,.19-.96,.34-1.87,.43-2.83,1.2-10.06-5.89-16.29-21.04-18.45-16-2.3-27.7-6.66-36.8-13.61-10.78-8.29-20.22-18.59-29.56-28.89,1.77-5.18,4.94-10.35,9.06-14.66,1.15-1.2,2.35-2.3,3.64-3.55,2.59-2.35,5.22-4.84,7.43-7.95,2.44-3.55,4.41-8.72,3.64-13.85,3.5-1.34,6.9-2.97,10.16-5.13,5.85-3.88,10.21-9.2,12.32-14.95,1.1,.05,2.25,.1,3.4,.1,4.6,0,9.2-.43,13.7-1.2,5.32-.96,10.54-2.44,15.53-4.46,2.3-.91,4.89-1.92,7.28-3.45,.81-.48,1.34-.57,3.5-.91,7.52-1.1,13.8-3.69,18.69-7.67,4.84-3.93,8.19-9.58,9.2-15.33-2.04,.82-4.33,1.09-6.5,1.43-2.84,.44-5.72,.73-8.6,.73-8.34,0-14.76-2.49-19.17-7.38-1.82-2.01-1.63-5.08,.34-6.9,2.01-1.82,5.13-1.68,6.95,.34,4.04,4.47,10.87,4.49,16.4,3.88,3.32-.37,6.89-.85,9.94-2.28,1.35-.63,2.61-1.44,3.76-2.39,.57-.48,1.11-.99,1.62-1.54,.38-.41,.93-1.51,1.4-1.74,.34-.43,.62-.91,.81-1.39-2.3-.62-4.46-2.01-6.13-3.93Zm-130.1-28.89c-.91,1.44-2.49,2.35-4.22,2.35-.91,0-1.77-.24-2.49-.67-10.25-6.09-15.96-16.82-14.81-27.94,.24-2.68,2.54-4.65,5.32-4.41,1.34,.14,2.49,.77,3.31,1.77,.86,1.01,1.25,2.3,1.1,3.59-.72,7.33,3.12,14.42,10.06,18.54,1.15,.67,1.92,1.77,2.25,3.02,.34,1.29,.14,2.59-.53,3.74Zm84.86,18.83c-1.1,.67-2.4,.86-3.55,.57-.67,1.44-1.53,2.83-2.68,3.93-1.63,1.49-3.79,2.3-6.04,2.3-1.15,0-2.3-.19-3.45-.62-3.45-1.29-5.75-4.36-6.95-7.71-1.2,1.29-2.3,2.73-3.26,4.26-.86,1.44-2.49,2.35-4.17,2.35-.91,0-1.77-.29-2.54-.77-1.15-.67-1.92-1.73-2.2-3.02-.34-1.25-.1-2.59,.57-3.69,2.68-4.36,6.37-8.19,10.64-11.02,1.2-.77,2.78-1.77,4.79-2.35,7.57-2.4,17.35,3.88,20.51,9.06,1.39,2.3,.67,5.32-1.68,6.71Z"/>
    <path class="cls-1" d="M582.11,608.36c-.39,.4-.79,.77-1.21,1.14-.26,.23-.55,.63-.93,.61-.75-.04-1.13-1.07-1.4-1.55l-1.05-1.89-.1-.21-1.15-2.02s-1.2-2.1-1.2-2.14l-1.87-3.33c-.57-.99-1.68-1.73-2.97-2.06-1.34-.29-2.78-.12-3.88,.49-2.2,1.23-2.92,3.58-1.73,5.59l2.49,4.19,1.15,1.85,1.1,1.85,.1,.16c.24,.41,.67,1.11,1.2,1.81,.35,.46,1,1.03,.76,1.65-.18,.46-.67,.54-1.12,.69-2.72,.89-5.52,1.54-8.35,2.04-2.58,.45-5.21,.87-7.82,.79-1.09-.03-1.06-1.03-1.21-1.75-.05-.66-.19-1.36-.29-2.06-.05-.04-.05-.12-.05-.21-.14-.66-.24-1.32-.43-2.02-.1-.66-.24-1.36-.43-2.06-.81-3.7-1.96-7.4-3.16-9.66-.53-.99-1.58-1.77-2.87-2.1-1.44-.37-2.92-.21-4.03,.41-.98,.55-1.78,1.37-2.13,2.39-.38,1.12-.12,2.22,.2,3.32,.59,2.05,1.18,4.11,1.77,6.16,.29,1,.53,1.95,.67,2.97,.14,1.01,.36,2,.66,2.98,.22,.72,.81,2.08-.38,2.31-.68,.13-1.38-.03-2.07-.04-1.17-.02-2.34-.06-3.51-.12-4.91-.25-9.81-.84-14.57-2-4.11-1-8.11-2.42-11.8-4.39-3.39-1.82-6.48-4.1-9.11-6.79-7.86-8.06-11.4-18.18-13.37-25.04-1.88-6.59-3.64-13.21-5.21-19.87-1.7-7.2-3.16-14.45-4.27-21.76-.39-2.55-.73-5.12-1.02-7.68-.29-2.55-.46-4.18-.71-7.67-.06-.8,1.22-.2,1.61-.11,2.42,.51,5.02,.63,7.5,.82,4.7,.36,9.41,.43,14.12,.43,4.9,.06,9.8,.08,14.71,.1,4.05,.01,8.11,.01,12.16,.02,1.87,0,3.74-.01,5.6,.01,5.36,.08,8.78,1.9,13.05,4.68,5.42,3.53,10.78,7.2,16.35,10.52,1.32,.79,2.63,1.59,4,2.3,.45,.23,2.46,.97,2.5,1.53,1.15,15.42,7.71,28.95,14.66,43.18,1.39,2.88,2.68,5.76,3.11,9.05,.62,4.77-.77,8.96-4.12,12.46Z"/>
  </g>
</svg>