<?xml version="1.0" encoding="UTF-8"?>
<svg id="Layer_1" data-name="Layer 1" xmlns="http://www.w3.org/2000/svg" viewBox="0 0 1080 1080">
  <defs>
    <style>
      .cls-1 {
        fill: #f5f2f5;
      }
    </style>
  </defs>
  <g>
    <path class="cls-1" d="M894.82,380.91h.14v-.42c-.07,.14-.14,.28-.14,.42Z"/>
    <g>
      <path class="cls-1" d="M894.82,380.91h.14v-.42c-.07,.14-.14,.28-.14,.42Z"/>
      <path class="cls-1" d="M918.62,385.77c.07,1.76-.49,3.59-.91,5.07-.14,.42-.28,.92-.35,1.34-.35,1.2-.7,2.32-1.2,3.45l-.63,1.27c-.42,.63-.77,1.2-1.2,1.76l-.07,.07c-.92,1.2-2.18,2.11-3.45,2.68-.28,.14-.49,.21-.78,.21-1.2,.35-2.47,.35-3.66,.07-2.53-.56-4.93-2.11-6.27-3.73-2.54-3.03-3.73-6.9-4.86-10.71-.28-1.06-.49-1.97-.63-2.82-.21-1.48-.21-2.68,.21-3.52h.14v-.14c.21-.42,.42-.77,.77-1.06,.21-.21,.49-.35,.78-.49,0-.07,.07-.07,.07-.07l-.42,.07c.49-.28,1.06-.42,1.69-.49,.85-.07,1.69-.07,2.61-.07,.21,0,.49,0,.77,.07h.71c1.2,.07,2.39,.28,3.59,.42,.56,.07,1.13,.14,1.76,.21,.56,.07,1.2,.21,1.76,.28,.99,.14,1.97,.21,2.96,.28,1.48,.14,3.17,.28,4.44,1.2,1.27,.92,2.11,2.68,2.18,4.65Z"/>
    </g>
  </g>
  <path class="cls-1" d="M891,403.23c-3.52-4.16-5.07-9.16-6.27-13.24-.7-2.39-1.13-4.51-1.06-6.48,0-1.27,.14-2.39,.49-3.52,.28-1.13,.77-2.18,1.55-3.24,0-.14,.07-.21,.21-.28-2.68-.63-5.42-1.2-8.24-1.69-5.78-1.06-11.83-1.97-18.53-2.82-2.11-.28-4.3-.42-6.48-.63-3.95-.35-7.68-.7-11.34-1.48-4.93-.99-7.68-4.79-10.35-8.52l-.99-1.27c-3.59-4.86-7.47-9.44-11.55-13.52-14.09-14.23-30.78-23.88-48.32-28.03-18.74-4.37-39.73-2.18-57.48,5.92-.14-1.06-.35-2.04-.63-3.03-.07-.14-.07-.35-.14-.49-.35-1.13-.77-2.18-1.27-3.24-1.48-3.38-3.52-6.27-5.28-8.52-5.49-6.9-11.2-11.83-17.4-15-8.17-4.09-17.19-5-24.94-2.47-11.34,3.73-19.72,15-20.92,27.96-.91,10.57,2.75,21.77,10.28,31.49,.77,.99,1.55,1.97,2.32,2.89-37.54,.63-76.08,1.97-113.83,3.31-43.53,1.48-88.54,3.03-131.79,3.52-14.8,.17-29.72,.15-44.44,1.9-43.61,5.18-88.04,15.76-124.89,40.6-8.86,5.97-17.21,12.7-24.89,20.13-14.93,14.46-27.67,31.19-37.63,49.43-9.11,16.7-19.79,37.69-14.37,57.22,1.38,4.99,3.9,9.58,7.36,13.43,5.21,5.92,12.89,9.37,20.5,9.37,2.11,0,4.09-.21,6.06-.77-1.13,23.1-.42,48.18,2.25,76.15,2.32,25.08,5.99,58.18,13.38,91.36,2.18,9.86,5,21.27,10.14,31.77,9.37,18.95,27.75,31.84,51.7,36.21,4.59,.83,9.23,1.39,13.89,1.73,2.48,.18,5.08,.48,7.56,.38,2.44-.11-.39-5.95-.6-7-1.11-5.61-2.81-10.98-4.26-16.49-.9-3.43-.66-7.01,2.57-9.11,1.62-1.06,3.87-1.34,5.92-.7,1.97,.56,3.52,1.9,4.23,3.59,1.8,4.33,3.3,8.76,4.58,13.27s2.11,9.25,3.08,13.88c.14,.65,.29,1.33,.71,1.85,1.32,1.62,6.47,.16,8.26-.01,3.32-.31,6.64-.62,9.94-1.03,2.78-.35,6.18-.46,8.66-1.92,.65-.38,.48-.51,.33-1.31-.11-.59-.23-1.17-.35-1.75-.97-4.46-2.53-8.87-4-13.19-1.47-4.33-3.12-8.61-4.97-12.79-1.46-3.32-.27-7.07,2.79-9.03,1.62-1.06,3.73-1.34,5.71-.77,2.26,.65,3.57,2.05,4.57,4.08,1.13,2.3,2.22,4.62,3.26,6.96,1.56,3.52,3.01,7.1,4.35,10.71,.67,1.81,1.31,3.63,1.91,5.46,.27,.82,.67,3.7,2.11,3.01,.62-.3,1.26-1.22,1.75-1.7,.72-.71,1.41-1.45,2.08-2.2,7.13-8.08,9.92-18.24,9.77-28.88-.09-6.32-1-12.68-2.33-18.85-3.66-17.89-6.06-32.68-.99-47.19,5.92-16.84,18.03-31.06,33.25-38.88,14.62-7.55,31.35-9.55,47.58-9.9,18.36-.39,36.74,.63,55.09,1.24,10.92,.36,21.86,1.19,32.75,1.44,10.97,.25,22.25-1.66,32.97,1.53,8.65,2.57,13.59,8.54,20.44,13.8,7.87,6.05,15.88,11.93,24.16,17.42,14.76,9.79,30.09,18.71,45.88,26.72,9.47,4.8,19.1,9.28,28.88,13.41,21.13,8.95,50.01,21.13,79.24,21.13,11.48,0,22.26-1.9,32.05-5.78,7.4-2.89,14.16-6.76,20.15-11.34-.59,.45-7.53-3.82-8.58-4.32-3.14-1.5-6.34-2.86-9.53-4.27-1.63-.72-5.14-2.34-5.14-4.58-.7-1.97-.49-4.23,.42-6.06,.91-1.62,2.53-2.96,4.44-3.45,2.18-.56,4.02,0,5.14,.56,7.98,3.53,17.09,6.43,23.67,12.4,5.49-6.13,9.93-12.96,12.96-20.43-.08,.16-6.9-3.44-7.47-3.74-4.46-2.32-9.03-4.26-13.94-5.45-4.15-1-6.73-4.29-5.79-8.71,2.32-10.84,17.58-3.43,23.45-.5,.57,.29,8.06,3.92,8.04,4.02,.28-1.41,.49-2.75,.63-4.16,1.76-14.79-8.66-23.95-30.92-27.12-23.53-3.38-40.71-9.79-54.1-20-15.85-12.19-29.73-27.33-43.46-42.48,2.61-7.61,7.25-15.21,13.31-21.55,1.69-1.76,3.45-3.38,5.35-5.21,3.8-3.45,7.68-7.11,10.92-11.69,3.59-5.21,6.48-12.82,5.35-20.36,5.14-1.97,10.14-4.37,14.93-7.54,8.59-5.71,15-13.52,18.1-21.98,1.62,.07,3.31,.14,5,.14,6.76,0,13.52-.63,20.15-1.76,7.82-1.41,15.5-3.59,22.82-6.55,3.38-1.34,7.18-2.82,10.71-5.07,1.2-.7,1.97-.85,5.14-1.34,11.06-1.62,20.29-5.42,27.47-11.27,7.11-5.78,12.05-14.09,13.52-22.54-3.01,1.2-6.37,1.6-9.55,2.1-4.17,.65-8.41,1.07-12.64,1.07-12.26,0-21.7-3.66-28.18-10.85-2.68-2.96-2.39-7.47,.49-10.14,2.96-2.68,7.54-2.47,10.21,.49,5.94,6.57,15.98,6.61,24.1,5.7,4.88-.55,10.13-1.25,14.62-3.35,1.98-.93,3.84-2.11,5.52-3.51,.84-.7,1.63-1.46,2.38-2.26,.56-.6,1.37-2.21,2.06-2.56,.49-.63,.92-1.34,1.2-2.04-3.38-.92-6.55-2.96-9.02-5.78Zm-191.24-42.47c-1.34,2.11-3.66,3.45-6.2,3.45-1.34,0-2.61-.35-3.66-.99-15.07-8.95-23.46-24.72-21.77-41.07,.35-3.95,3.73-6.83,7.82-6.48,1.97,.21,3.66,1.13,4.86,2.61,1.27,1.48,1.83,3.38,1.62,5.28-1.06,10.78,4.58,21.2,14.79,27.26,1.69,.99,2.82,2.61,3.31,4.44,.49,1.9,.21,3.8-.77,5.49Zm124.75,27.68c-1.62,.99-3.52,1.27-5.21,.85-.99,2.11-2.25,4.16-3.94,5.78-2.4,2.18-5.57,3.38-8.88,3.38-1.69,0-3.38-.28-5.07-.92-5.07-1.9-8.45-6.41-10.21-11.34-1.76,1.9-3.38,4.02-4.79,6.27-1.27,2.11-3.66,3.45-6.13,3.45-1.34,0-2.61-.42-3.73-1.13-1.69-.99-2.82-2.54-3.24-4.44-.49-1.83-.14-3.8,.84-5.42,3.95-6.41,9.37-12.05,15.64-16.2,1.76-1.13,4.09-2.61,7.04-3.45,11.13-3.52,25.5,5.71,30.15,13.31,2.04,3.38,.99,7.82-2.46,9.86Z"/>
  <path class="cls-1" d="M619.94,774.42c-.57,.58-1.17,1.14-1.79,1.68-.39,.33-.8,.93-1.37,.9-1.1-.05-1.67-1.57-2.06-2.28l-1.55-2.78-.14-.3-1.69-2.96s-1.76-3.08-1.76-3.14l-2.75-4.9c-.85-1.45-2.47-2.54-4.37-3.02-1.97-.42-4.09-.18-5.71,.72-3.24,1.81-4.3,5.26-2.54,8.22l3.66,6.17,1.69,2.72,1.62,2.72,.14,.24c.35,.61,.99,1.63,1.76,2.66,.51,.67,1.47,1.52,1.12,2.42-.27,.68-.99,.8-1.64,1.01-3.99,1.31-8.11,2.27-12.27,2.99-3.79,.66-7.66,1.27-11.49,1.17-1.61-.04-1.55-1.52-1.77-2.58-.07-.97-.28-2-.42-3.02-.07-.06-.07-.18-.07-.3-.21-.97-.35-1.93-.63-2.96-.14-.97-.35-1.99-.63-3.02-1.2-5.44-2.89-10.88-4.65-14.21-.77-1.45-2.32-2.6-4.23-3.08-2.11-.54-4.3-.3-5.92,.6-1.44,.8-2.62,2.01-3.14,3.51-.57,1.64-.17,3.26,.29,4.87,.87,3.02,1.74,6.04,2.61,9.06,.42,1.48,.77,2.86,.99,4.37,.21,1.48,.54,2.95,.98,4.38,.33,1.06,1.19,3.06-.57,3.4-1,.19-2.03-.04-3.04-.06-1.72-.03-3.44-.09-5.15-.18-7.21-.37-14.42-1.24-21.41-2.94-6.04-1.46-11.93-3.56-17.34-6.46-4.98-2.67-9.53-6.03-13.39-9.99-11.55-11.85-16.76-26.72-19.65-36.81-2.77-9.68-5.35-19.42-7.66-29.21-2.5-10.59-4.65-21.25-6.27-31.98-.57-3.76-1.07-7.52-1.5-11.29-.43-3.75-.68-6.15-1.04-11.27-.08-1.18,1.79-.29,2.37-.16,3.56,.76,7.39,.93,11.02,1.21,6.91,.53,13.84,.63,20.76,.63,7.21,.08,14.41,.12,21.62,.14,5.96,.02,11.92,.02,17.88,.02,2.75,0,5.49-.02,8.24,.02,7.87,.12,12.91,2.79,19.19,6.87,7.97,5.19,15.84,10.58,24.03,15.47,1.94,1.16,3.86,2.34,5.88,3.38,.66,.34,3.61,1.43,3.68,2.25,1.69,22.67,11.34,42.56,21.55,63.48,2.04,4.23,3.94,8.46,4.58,13.3,.92,7.01-1.13,13.18-6.06,18.32Z"/>
</svg>